<svg xmlns="http://www.w3.org/2000/svg" width="103.404" height="60.647" viewBox="0 0 103.404 60.647">
  <g id="그룹_4" data-name="그룹 4" transform="translate(194.012 -1742.687)">
    <g id="그룹_2" data-name="그룹 2" transform="translate(-194.013 1742.687)">
      <path id="패스_151" data-name="패스 151" d="M997.116,109.016q.834.161,1.7.265a13.213,13.213,0,0,1,8.041,20.965,13.2,13.2,0,0,1-9.686,5.255,25.8,25.8,0,0,1-3.025-.106,13.175,13.175,0,0,1-9.474-6.635,13.263,13.263,0,0,1,7.457-19.134A13.617,13.617,0,0,1,997.116,109.016Z" transform="translate(-952.307 -108.989)" fill="#b1a692" fill-rule="evenodd"/>
      <path id="패스_152" data-name="패스 152" d="M1249.5,109.5a7.193,7.193,0,0,1,1.221.133,1.138,1.138,0,0,1,.478.133Q1250.334,109.661,1249.5,109.5Z" transform="translate(-1204.692 -109.473)" fill="#dad5cb" fill-rule="evenodd"/>
      <path id="패스_153" data-name="패스 153" d="M1198.146,127.5h.637v.159h-.212q.054.742.053,1.486h.266v.265h-.69v-.265h.212a10.549,10.549,0,0,0-.106-1.38q-.287.821-.557,1.645l-.743-1.486q.01.662.026,1.327h.212v.212h-.637V129.3h.212a9.125,9.125,0,0,0-.106-1.433h-.212v-.318a2.2,2.2,0,0,1,.663.053q.281.6.531,1.221Q1197.925,128.166,1198.146,127.5Z" transform="translate(-1154.505 -126.518)" fill="#f6f5f3" fill-rule="evenodd"/>
      <path id="패스_154" data-name="패스 154" d="M1260.765,130.5a4.093,4.093,0,0,1,.69.053v.212a.344.344,0,0,0-.239.053,11.317,11.317,0,0,0-.239,1.433h.159v.159h-.637v-.265h.212a10.934,10.934,0,0,1,.212-1.247A.491.491,0,0,1,1260.765,130.5Z" transform="translate(-1215.108 -129.356)" fill="#f7f5f3" fill-rule="evenodd"/>
      <path id="패스_155" data-name="패스 155" d="M1126.925,148.5h.265a.382.382,0,0,1-.106.318l.531,1.115q.576.152.053.4-.148.034-.292.08a.142.142,0,0,1-.133-.106.287.287,0,0,0,.08-.318q-.217-.514-.478-1.008a.153.153,0,0,0-.213,0,.232.232,0,0,1-.133-.159A1.506,1.506,0,0,1,1126.925,148.5Z" transform="translate(-1088.22 -146.403)" fill="#f4f3f0" fill-rule="evenodd"/>
      <path id="패스_156" data-name="패스 156" d="M1325.574,157.467a1.326,1.326,0,0,1,1.247.637q.152-.222.239.027a1.75,1.75,0,0,0-.212.451.365.365,0,0,1-.213-.053.912.912,0,0,0-.424-.77q-1.069-.1-.982.982a.622.622,0,0,0,.876.4q.238-.291.372.053-1.069.68-1.566-.5A1.187,1.187,0,0,1,1325.574,157.467Z" transform="translate(-1276.095 -154.892)" fill="#f7f6f4" fill-rule="evenodd"/>
      <path id="패스_157" data-name="패스 157" d="M1081.668,166.5a.946.946,0,0,1,.371.451.245.245,0,0,1-.133.133.655.655,0,0,0-.239-.265,3.042,3.042,0,0,0-.584.5.653.653,0,0,0,.345.4,1.077,1.077,0,0,0,.451-.345.088.088,0,0,1,.133.027.17.17,0,0,1-.027.212,1.078,1.078,0,0,0-.424.372,1.137,1.137,0,0,0,.4.425,1.452,1.452,0,0,0,.557-.478.869.869,0,0,0-.106-.239.142.142,0,0,1,.106-.133,1.8,1.8,0,0,1,.319.4.764.764,0,0,1-.213.265q-.492.339-.955.717a.349.349,0,0,1-.159-.159q.254-.11.08-.318-.369-.489-.77-.955-.177.216-.318-.027Q1081.1,167,1081.668,166.5Z" transform="translate(-1044.661 -163.448)" fill="#f6f4f2" fill-rule="evenodd"/>
      <path id="패스_158" data-name="패스 158" d="M1070.531,185.187a13.551,13.551,0,0,1,.053,2.866,9.766,9.766,0,0,1-5.2,7.351q-.964.407-1.964.743a9.628,9.628,0,0,1-9.58-2.893,9.8,9.8,0,0,1-1.858-9.978,10.137,10.137,0,0,1,4.591-5.122,9.686,9.686,0,0,1,10.456,1.062A9.4,9.4,0,0,1,1070.531,185.187Z" transform="translate(-1017.071 -173.483)" fill="#fdfdfd" fill-rule="evenodd"/>
      <path id="패스_159" data-name="패스 159" d="M1364.774,187.459a.129.129,0,0,1,.106.027q.222.245.424.5a.142.142,0,0,1-.133.106.218.218,0,0,0-.186-.08q-.492.479-.955.982a1.318,1.318,0,0,0,.4.372,1.847,1.847,0,0,0,.4-.345q.206-.024.133.186a7.038,7.038,0,0,0-.5.531,8.321,8.321,0,0,1-.955-.982.136.136,0,0,1,.133-.133.236.236,0,0,0,.239.08l.876-.876a.238.238,0,0,0-.08-.239A.468.468,0,0,1,1364.774,187.459Z" transform="translate(-1312.641 -183.292)" fill="#f6f5f3" fill-rule="evenodd"/>
      <path id="패스_160" data-name="패스 160" d="M1049.965,205.45a.263.263,0,0,1,.159.027.988.988,0,0,1,.318.318.142.142,0,0,1-.106.133q-.511-.221-.584.318.013.318.318.239a1.112,1.112,0,0,1,.743-.4q.849.145.451.9a1.322,1.322,0,0,1-.345.265c-.039.079-.075.159-.106.239a.839.839,0,0,1-.531-.4.16.16,0,0,1,.106-.106.712.712,0,0,0,.584-.027q.368-.415-.133-.61-.36.187-.716.4a.437.437,0,0,1-.61-.345.545.545,0,0,1,.186-.61.467.467,0,0,1,.266-.08Z" transform="translate(-1015.294 -200.328)" fill="#f5f4f2" fill-rule="evenodd"/>
      <path id="패스_161" data-name="패스 161" d="M1112.83,209.358a5.776,5.776,0,0,0,1.327.212h1.221q.02,3.185-.053,6.369a2.22,2.22,0,0,0-.106.478q-.662-.093-1.327-.159-2.039-.269-4.087-.372a30.9,30.9,0,0,0-3.131-.027q-1.113.1-2.229.159a1.469,1.469,0,0,0-.584.133,3.643,3.643,0,0,0-.955.106,11.488,11.488,0,0,0-1.327.159,5.532,5.532,0,0,0-.106-.637q-.074-3.1-.053-6.21a16,16,0,0,0,3.344-.4q.937-.3,1.858-.637.909-.488,1.778-1.035A10.144,10.144,0,0,0,1112.83,209.358Z" transform="translate(-1064.466 -202.271)" fill="#b0a692" fill-rule="evenodd"/>
      <path id="패스_162" data-name="패스 162" d="M1393.933,225.459a.233.233,0,0,1,.186.053l.265.372a.138.138,0,0,1-.106.212l-.212-.106a10.875,10.875,0,0,0-1.035.69.191.191,0,0,0,0,.239.232.232,0,0,1-.159.133q-.2-.273-.372-.557a.231.231,0,0,1,.159-.133.5.5,0,0,0,.159.159l1.115-.823A.171.171,0,0,1,1393.933,225.459Z" transform="translate(-1340.102 -219.275)" fill="#f6f4f2" fill-rule="evenodd"/>
      <path id="패스_163" data-name="패스 163" d="M1019.3,239.5h.212a.313.313,0,0,0,.053.4,11.2,11.2,0,0,0,1.327.61.483.483,0,0,1-.053.265q-.93.071-1.858.159a5.518,5.518,0,0,1,.955.5.318.318,0,0,0,.4-.133.136.136,0,0,1,.133.133,4.7,4.7,0,0,0-.265.61q-.3,0-.159-.265l-.159-.133a6.826,6.826,0,0,1-1.062-.557.413.413,0,0,0-.159.186.262.262,0,0,1-.159.027,1.544,1.544,0,0,1,.265-.663q.768-.074,1.539-.106a6.709,6.709,0,0,0-1.008-.5.166.166,0,0,1-.133.212.136.136,0,0,1-.133-.133Q1019.176,239.808,1019.3,239.5Z" transform="translate(-985.952 -232.573)" fill="#f4f3f0" fill-rule="evenodd"/>
      <path id="패스_164" data-name="패스 164" d="M1316.5,242.5a7.319,7.319,0,0,1,1.327.212A5.782,5.782,0,0,1,1316.5,242.5Z" transform="translate(-1268.135 -235.414)" fill="#d7d2c8" fill-rule="evenodd"/>
      <path id="패스_165" data-name="패스 165" d="M1183.085,246.273a3.1,3.1,0,0,1,2.627,1.008,2.811,2.811,0,0,1-.345,3.848l-.425.318a3.449,3.449,0,0,0-.743.319,2.819,2.819,0,0,1-3.423-2.362,2.853,2.853,0,0,1,1.354-2.786A3.507,3.507,0,0,1,1183.085,246.273Z" transform="translate(-1139.604 -238.974)" fill="#fdfdfc" fill-rule="evenodd"/>
      <path id="패스_166" data-name="패스 166" d="M1410.092,257.5h.212a1.389,1.389,0,0,1,.133.637q-.453.546-.876,1.115l.08.053a4.229,4.229,0,0,1,.929-.318c-.018-.106-.036-.212-.053-.319a.285.285,0,0,1,.292.159,1.037,1.037,0,0,1,.133.531,1.007,1.007,0,0,1-.371-.159q-.7.271-1.406.531a.25.25,0,0,1-.106-.318q.529-.649,1.088-1.274l-.079-.053a6.41,6.41,0,0,1-1.141.425.484.484,0,0,0,.053.265.186.186,0,0,1-.212.106,4.6,4.6,0,0,0-.265-.743.4.4,0,0,1,.372.159,5.912,5.912,0,0,0,1.168-.478A.523.523,0,0,0,1410.092,257.5Z" transform="translate(-1355.252 -249.618)" fill="#f5f3f1" fill-rule="evenodd"/>
      <path id="패스_167" data-name="패스 167" d="M1207.293,271.96a1.688,1.688,0,0,1,1.884.9q.2,1.977-1.778,1.884a1.521,1.521,0,0,1-.929-1.99A1.98,1.98,0,0,1,1207.293,271.96Z" transform="translate(-1163.865 -263.282)" fill="#b1a692" fill-rule="evenodd"/>
      <path id="패스_168" data-name="패스 168" d="M1309.349,273.474a.1.1,0,0,1,.106.053.5.5,0,0,0,.026.478,3.144,3.144,0,0,1,.558.637,1.411,1.411,0,0,1-.319.584.258.258,0,0,0,.212.053.782.782,0,0,1-.106.345q-.556.04-1.115.027a2.75,2.75,0,0,0-.053-.372h.372a.761.761,0,0,0-.4-.478,1.042,1.042,0,0,1-.133-.265.831.831,0,0,1,.265-.425.918.918,0,0,0,.557.637.776.776,0,0,1-.079.531.286.286,0,0,0,.292-.265.345.345,0,0,0,0-.265,5.3,5.3,0,0,1-.531-.478.656.656,0,0,1,0-.371A4.242,4.242,0,0,1,1309.349,273.474Z" transform="translate(-1260.56 -264.742)" fill="#f8f8f6" fill-rule="evenodd"/>
      <path id="패스_169" data-name="패스 169" d="M1125.5,292.4a2.548,2.548,0,0,1,.717.053q.04.689.026,1.38h-.743Z" transform="translate(-1087.273 -282.659)" fill="#faf9f8" fill-rule="evenodd"/>
      <path id="패스_170" data-name="패스 170" d="M1142.546,292.5h.637v1.433h-.743q-.013-.664.027-1.327A.227.227,0,0,0,1142.546,292.5Z" transform="translate(-1103.31 -282.76)" fill="#faf9f8" fill-rule="evenodd"/>
      <path id="패스_171" data-name="패스 171" d="M1119.5,297.5h.159v1.327a1.906,1.906,0,0,1,1.008.159.23.23,0,0,0,.159-.133,6.825,6.825,0,0,1,.849-.027V297.5h.159v1.486a2.561,2.561,0,0,0-1.194.159.257.257,0,0,1-.239-.133,7.7,7.7,0,0,0-.9-.027Z" transform="translate(-1081.591 -287.495)" fill="#f4f2f0" fill-rule="evenodd"/>
      <path id="패스_172" data-name="패스 172" d="M1005.009,301.13a1.174,1.174,0,0,1,1.247.531q.3,1.532-1.247,1.407a1.028,1.028,0,0,1-.451-1.566A1.474,1.474,0,0,1,1005.009,301.13Z" transform="translate(-972.567 -290.913)" fill="#f6f5f3" fill-rule="evenodd"/>
      <path id="패스_173" data-name="패스 173" d="M1009.881,306.5a1.219,1.219,0,0,1,.876.372q.261,1.225-.982.982a.814.814,0,0,1-.345-.929A1.041,1.041,0,0,1,1009.881,306.5Z" transform="translate(-977.333 -296.017)" fill="#b2a794" fill-rule="evenodd"/>
      <path id="패스_174" data-name="패스 174" d="M1317.5,316.5h.637q-.11.607-.186,1.221a.161.161,0,0,1-.265-.053Q1317.6,317.081,1317.5,316.5Z" transform="translate(-1269.082 -305.486)" fill="#f7f6f5" fill-rule="evenodd"/>
      <path id="패스_175" data-name="패스 175" d="M1427.145,316.441a.345.345,0,0,1,.239.053l.08.637h-.212v-.159q-.714.1-1.433.159v.265h-.265a6.2,6.2,0,0,0-.053-.69h.265v.159a8.046,8.046,0,0,1,1.38-.159Z" transform="translate(-1371.35 -305.427)" fill="#f3f2ef" fill-rule="evenodd"/>
      <path id="빼기_8" data-name="빼기 8" d="M201.923-1711.889h0v-14.557h-3.079a.688.688,0,0,0-.053.372h-4.776v-1.645c.746,0,1.56.007,2.421.007,2.394,0,4.829-.02,7.238-.06.159-.76.3-1.528.425-2.282h-9.873v-1.7h10.031v-2.07H196.4v-1.645h7.855v-2.017H195.18v-1.7c.38,0,.8,0,1.275,0,1.265,0,2.551-.01,3.82-.03a13.868,13.868,0,0,0-1.858-2.839c.516-.235,1.042-.449,1.566-.637a10.792,10.792,0,0,1,2.2,3.105l-.251.126-.083.042-.409.2c1.175.017,2.407.027,3.662.027,1.218,0,2.45-.009,3.662-.027-.279-.1-.547-.207-.8-.319a30.883,30.883,0,0,0,2.1-3.1.218.218,0,0,1,.106-.053c.617.188,1.233.385,1.831.584a25.488,25.488,0,0,1-2.229,2.893c1.339.02,2.732.03,4.138.03.468,0,.932,0,1.381,0v1.7h-9.182v2.017h8.068v1.645h-8.068v2.07h10.137v1.7H206.008a15.726,15.726,0,0,1-.372,2.282c2.686.039,5.429.06,8.153.06.917,0,1.835,0,2.728-.007v1.645c-.71,0-1.486-.006-2.307-.006-2.337,0-4.686.02-6.982.059a8.318,8.318,0,0,0,3.609,3.158,20.056,20.056,0,0,0,6.051,1.486,5.431,5.431,0,0,0-1.114,1.619,15.407,15.407,0,0,1-6.847-2.1,9.839,9.839,0,0,1-3.635-4.167.135.135,0,0,0-.094-.049.131.131,0,0,0-.092.049,7.831,7.831,0,0,1-3.078,3.821q-.05,4.849-.1,9.676Zm.318-14.188q-.133,0-.267,0c-.009.484,0,.985.026,1.486a7.428,7.428,0,0,0,1.035-1.46C202.777-1726.067,202.51-1726.077,202.241-1726.077Z" transform="translate(-113.484 1754.921)" fill="#e5e1db" fill-rule="evenodd"/>
      <path id="패스_177" data-name="패스 177" d="M1428.247,355.4q1.722-.1,1.168,1.513a.488.488,0,0,1,.106.345h-.637a.692.692,0,0,1,.026-.265.787.787,0,0,0,.425-.9.968.968,0,0,0-1.194-.292.685.685,0,0,0,.053,1.115.262.262,0,0,0,.159.027q-.037.388-.372.186A1.016,1.016,0,0,1,1428.247,355.4Z" transform="translate(-1373.354 -342.317)" fill="#f6f5f3" fill-rule="evenodd"/>
      <path id="패스_178" data-name="패스 178" d="M1000.5,356.5h.266a.522.522,0,0,0,.053.318,3.852,3.852,0,0,0,.69.345,4.507,4.507,0,0,0,.69.027v-.265h.265q.044.4.053.8h-.265v-.212a4.506,4.506,0,0,0-.69.027l-.663.557a.692.692,0,0,0-.027.265h-.265v-.743h.212a.258.258,0,0,0,.053.212l.478-.425-.531-.371a.375.375,0,0,0-.053.265h-.212Q1000.52,356.9,1000.5,356.5Z" transform="translate(-968.907 -343.363)" fill="#f4f2ef" fill-rule="evenodd"/>
      <path id="패스_179" data-name="패스 179" d="M1412.5,329.5a5.026,5.026,0,0,1,.159,1.513,6.934,6.934,0,0,1-.106,1.353A13.551,13.551,0,0,0,1412.5,329.5Z" transform="translate(-1359.04 -317.796)" fill="#d7d2c8" fill-rule="evenodd"/>
      <path id="패스_180" data-name="패스 180" d="M1153.445,364.536q-1.54-.013-3.078.027-1.431.146-2.866.239a1.471,1.471,0,0,1,.584-.133q1.116-.056,2.229-.159A30.909,30.909,0,0,1,1153.445,364.536Z" transform="translate(-1108.105 -350.922)" fill="none" fill-rule="evenodd"/>
      <path id="패스_181" data-name="패스 181" d="M1163.6,372.536q-1.433-.013-2.866.027a20.779,20.779,0,0,1-2.229.133q.992-.139,2.017-.186A29.871,29.871,0,0,1,1163.6,372.536Z" transform="translate(-1118.521 -358.497)" fill="none" fill-rule="evenodd"/>
      <path id="패스_182" data-name="패스 182" d="M1113.408,373.441q1.195.011,2.388.08,1.622.21,3.238.451a9.914,9.914,0,0,1-2.229,4.565q-2.208-2.274-4.538-4.511-2.3,2.225-4.511,4.458a1.543,1.543,0,0,1-.478-.478,11.429,11.429,0,0,1-1.778-3.954.193.193,0,0,1,.106-.106q1.349-.214,2.707-.345a20.758,20.758,0,0,0,2.229-.133Q1111.975,373.427,1113.408,373.441Z" transform="translate(-1068.334 -359.402)" fill="#b0a591" fill-rule="evenodd"/>
      <path id="패스_183" data-name="패스 183" d="M1337.933,366.5a1.737,1.737,0,0,1-.026.425.368.368,0,0,1-.239.106,6.611,6.611,0,0,1-1.168-.212q.664.066,1.327.159A2.228,2.228,0,0,1,1337.933,366.5Z" transform="translate(-1287.074 -352.832)" fill="none" fill-rule="evenodd"/>
      <path id="패스_184" data-name="패스 184" d="M1102.474,363.5a5.559,5.559,0,0,1,.106.637,11.486,11.486,0,0,1,1.327-.159,5.9,5.9,0,0,1-1.38.212A3.279,3.279,0,0,1,1102.474,363.5Z" transform="translate(-1065.468 -349.992)" fill="none" fill-rule="evenodd"/>
      <path id="패스_185" data-name="패스 185" d="M1171.844,426.45a.263.263,0,0,1,.159.027q1.686,1.673,3.344,3.37a11.322,11.322,0,0,1-3.476,2.123,10.8,10.8,0,0,1-3.37-2.123Z" transform="translate(-1127.991 -409.598)" fill="#b1a793" fill-rule="evenodd"/>
      <path id="패스_186" data-name="패스 186" d="M1051.056,467.5a.918.918,0,0,1,1.035.955l.266.265a.192.192,0,0,1,.239,0,1.065,1.065,0,0,1,.159.239q-.62.536-1.274,1.035a.945.945,0,0,1-.266-.265,1,1,0,0,1,.345-.318.132.132,0,0,0,0-.159.641.641,0,0,1-.186-.239.931.931,0,0,1-.77-.664.663.663,0,0,1,.053-.478A3.9,3.9,0,0,1,1051.056,467.5Z" transform="translate(-1016.332 -448.469)" fill="#f9f8f7" fill-rule="evenodd"/>
      <path id="패스_187" data-name="패스 187" d="M1392.186,467.5q.741.607,1.486,1.221l-.159.212a.4.4,0,0,1-.266.027l-.292.292a.21.21,0,0,1-.106-.053l.159-.478-1.009-.849A1.7,1.7,0,0,1,1392.186,467.5Z" transform="translate(-1339.628 -448.472)" fill="#f8f7f6" fill-rule="evenodd"/>
      <path id="패스_188" data-name="패스 188" d="M1237.712,472.5a2.462,2.462,0,0,1,.106,1.008q.063.107-.318.027a.5.5,0,0,0,.133-.08,5.958,5.958,0,0,0,.026-.8.262.262,0,0,1-.159-.027A.264.264,0,0,0,1237.712,472.5Z" transform="translate(-1193.328 -453.206)" fill="#f3f2ef" fill-rule="evenodd"/>
      <path id="패스_189" data-name="패스 189" d="M1057.981,474.359q.5-.066.451.425a.471.471,0,0,1-.61.239A.43.43,0,0,1,1057.981,474.359Z" transform="translate(-1023.098 -454.959)" fill="#b4aa97" fill-rule="evenodd"/>
      <path id="패스_190" data-name="패스 190" d="M1218.356,472.467q.551-.033.531.531a.606.606,0,0,1-.372.584.637.637,0,0,1-.345-.849Q1218.264,472.6,1218.356,472.467Z" transform="translate(-1174.981 -453.173)" fill="#efede9" fill-rule="evenodd"/>
      <path id="패스_191" data-name="패스 191" d="M1222.634,474.441a.344.344,0,0,1,.239.053,2.124,2.124,0,0,1-.026.8.258.258,0,0,1-.212.053A2.121,2.121,0,0,1,1222.634,474.441Z" transform="translate(-1179.205 -455.041)" fill="#b4a997" fill-rule="evenodd"/>
      <path id="패스_192" data-name="패스 192" d="M1202.5,472.208q.6-.106.451.478a1.151,1.151,0,0,1-.345.372.7.7,0,0,0,.371.053v.159h-.584a2.088,2.088,0,0,1,.4-.584,1.323,1.323,0,0,0,.026-.372h-.265c.017.106.036.212.053.318h-.212A.564.564,0,0,1,1202.5,472.208Z" transform="translate(-1160.083 -452.915)" fill="#eceae6" fill-rule="evenodd"/>
      <path id="패스_193" data-name="패스 193" d="M1375.978,481.5q1.111.062.451,1.008-.7.638-.929-.265A1.067,1.067,0,0,1,1375.978,481.5Z" transform="translate(-1324.004 -461.728)" fill="#f7f6f4" fill-rule="evenodd"/>
      <path id="패스_194" data-name="패스 194" d="M1381.655,488.444q.571-.041.265.451Q1381.356,488.939,1381.655,488.444Z" transform="translate(-1329.734 -468.301)" fill="#b5ab98" fill-rule="evenodd"/>
      <path id="패스_195" data-name="패스 195" d="M1037.975,488.5a.478.478,0,0,1,.318.318,1.335,1.335,0,0,0-.372.4,11.66,11.66,0,0,1,.8,1.061.231.231,0,0,1-.159.133q-.53-.6-1.035-1.221a.343.343,0,0,1,0-.265A1.722,1.722,0,0,0,1037.975,488.5Z" transform="translate(-1003.941 -468.357)" fill="#f7f6f5" fill-rule="evenodd"/>
      <path id="패스_196" data-name="패스 196" d="M1387.717,489.442a.186.186,0,0,1,.212.106,3.19,3.19,0,0,0-.265.478.582.582,0,0,0,.213.292q-.2.418-.5.08a4.654,4.654,0,0,0-.4.425.156.156,0,0,1-.133-.212A9.258,9.258,0,0,0,1387.717,489.442Z" transform="translate(-1334.734 -469.246)" fill="#f7f6f4" fill-rule="evenodd"/>
      <path id="패스_197" data-name="패스 197" d="M1070.712,489.5q.485.224.027.478a.4.4,0,0,1-.239-.239A1.353,1.353,0,0,0,1070.712,489.5Z" transform="translate(-1035.192 -469.304)" fill="#b8ae9c" fill-rule="evenodd"/>
      <path id="패스_198" data-name="패스 198" d="M1250.648,472.338a.4.4,0,0,1,.451.212,1.917,1.917,0,0,1,0,.637q-.395.555-.637-.106A.745.745,0,0,1,1250.648,472.338Z" transform="translate(-1205.574 -453.044)" fill="#eeece8" fill-rule="evenodd"/>
      <path id="패스_199" data-name="패스 199" d="M1254.571,474.444a.227.227,0,0,1,.239.106,1.929,1.929,0,0,1,0,.637q-.07.227-.266.106A2.406,2.406,0,0,1,1254.571,474.444Z" transform="translate(-1209.444 -455.044)" fill="#b5ab98" fill-rule="evenodd"/>
      <path id="패스_200" data-name="패스 200" d="M1404.214,493.5c.137.012.181.082.133.212l-1.035,1.247a.644.644,0,0,1-.5-.239.237.237,0,0,1,.133-.292q.211.05.425.106Q1403.776,494,1404.214,493.5Z" transform="translate(-1349.851 -473.092)" fill="#f7f6f5" fill-rule="evenodd"/>
      <path id="패스_201" data-name="패스 201" d="M1310.855,527.418a.258.258,0,0,1,.212.053q.526,1.1.955,2.229a1.284,1.284,0,0,1-.372.08,1.358,1.358,0,0,0-.266-.5,7.05,7.05,0,0,1-1.513.849.189.189,0,0,1-.08-.292,2.715,2.715,0,0,1,.743-.292q.325-.222.664-.425a.755.755,0,0,0-.053-.478q-.263-.513-.5-1.035A.9.9,0,0,1,1310.855,527.418Z" transform="translate(-1261.748 -505.205)" fill="#f7f6f5" fill-rule="evenodd"/>
      <path id="패스_202" data-name="패스 202" d="M1114.406,528.5l.372.106q-.143.34-.292.69a4.392,4.392,0,0,0-.079,1.088.221.221,0,0,1-.239-.026q-.105-.288-.186-.584a2.885,2.885,0,0,1-.478.212.2.2,0,0,1-.159-.265,1.227,1.227,0,0,0,.61-.372A3.891,3.891,0,0,0,1114.406,528.5Z" transform="translate(-1075.754 -506.234)" fill="#f7f5f3" fill-rule="evenodd"/>
      <path id="패스_203" data-name="패스 203" d="M1131.562,535.5a.719.719,0,0,0,.318.106,21.529,21.529,0,0,1-1.088,2.229.576.576,0,0,1-.292-.159q.343-.659.637-1.327c-.21,0-.3-.106-.265-.318a1.67,1.67,0,0,0,.424.026Q1131.421,535.774,1131.562,535.5Z" transform="translate(-1092.008 -512.862)" fill="#f8f7f6" fill-rule="evenodd"/>
      <path id="패스_204" data-name="패스 204" d="M1301.207,536.5q1.014-.007.876,1.008a1,1,0,0,1-1.088.4Q1300.171,537.049,1301.207,536.5Z" transform="translate(-1253.107 -513.808)" fill="#f8f7f6" fill-rule="evenodd"/>
      <path id="패스_205" data-name="패스 205" d="M1141.693,540.485q.307-.016.292.265-.514,1-.982,2.017-.379.135-.292-.265Q1141.191,541.481,1141.693,540.485Z" transform="translate(-1101.661 -517.582)" fill="#f9f8f6" fill-rule="evenodd"/>
      <path id="패스_206" data-name="패스 206" d="M1308.729,543.318a.45.45,0,0,1,.584.425q-.09.459-.531.265A.543.543,0,0,1,1308.729,543.318Z" transform="translate(-1260.683 -520.255)" fill="#b4aa97" fill-rule="evenodd"/>
      <path id="패스_207" data-name="패스 207" d="M1211.031,550.5a.324.324,0,0,1,.266.318,3.234,3.234,0,0,0,.584-.026,1.712,1.712,0,0,1,.212-.292q.225.07.106.265a1.12,1.12,0,0,0,.478.053v.212h-.955v.212h.8v.265h-.8v.159h1.009v.265h-1.009v.212h.955v.212a3.038,3.038,0,0,0-.8.053.8.8,0,0,0,.8.372v.212a1.169,1.169,0,0,1-1.035-.478,2.209,2.209,0,0,1-1.141.478v-.265a1.187,1.187,0,0,0,.9-.318,3.452,3.452,0,0,0-.849-.053v-.212h.955v-.266H1210.5v-.212h1.008v-.159h-.849v-.265h.849v-.159h-.955v-.265a1.119,1.119,0,0,0,.478-.053A.234.234,0,0,1,1211.031,550.5Z" transform="translate(-1167.761 -527.066)" fill="#f4f2f0" fill-rule="evenodd"/>
      <path id="패스_208" data-name="패스 208" d="M1193.5,606.5a25.773,25.773,0,0,0,3.025.106,17.206,17.206,0,0,1-2.335.026A3.531,3.531,0,0,1,1193.5,606.5Z" transform="translate(-1151.664 -580.094)" fill="#d1cbbf" fill-rule="evenodd"/>
      <path id="패스_209" data-name="패스 209" d="M1002.5,644.5h2.972v19.426H1002.5Z" transform="translate(-970.801 -616.077)" fill="#332303" fill-rule="evenodd"/>
      <path id="패스_210" data-name="패스 210" d="M1329.5,644.5h3.131v19.479H1329.5Z" transform="translate(-1280.445 -616.077)" fill="#342305" fill-rule="evenodd"/>
      <path id="패스_211" data-name="패스 211" d="M1671.5,644.5h3.078v19.479H1671.5Z" transform="translate(-1604.293 -616.077)" fill="#342304" fill-rule="evenodd"/>
      <path id="빼기_1" data-name="빼기 1" d="M210.213-1728.41h-3.078c.017-1.494,0-2.993-.053-4.458-.3,0-.634,0-1.016,0-.994,0-2.01.01-3.018.029a5.578,5.578,0,0,1-3.85,1.514c-.2,0-.4-.01-.608-.028a5.5,5.5,0,0,1-3.022-1.376,5.484,5.484,0,0,1-1.516-2.95,5.571,5.571,0,0,1,.641-3.46,5.488,5.488,0,0,1,2.729-2.193,6.473,6.473,0,0,1,1.853-.287,5.547,5.547,0,0,1,3.773,1.535c1.01.04,2.038.06,3.056.06.341,0,.687,0,1.031-.007v-2.654h3.078v14.277Zm-11.305-10.4h0a2.309,2.309,0,0,0-1.937,2.76,2.1,2.1,0,0,0,1.778,1.884,3.805,3.805,0,0,0,.511.037,2.194,2.194,0,0,0,2.222-1.761,2.728,2.728,0,0,0-.481-2.18,2.711,2.711,0,0,0-2.093-.739Zm5.52,1.328a9.987,9.987,0,0,1,0,2.017h2.654v-2.017Z" transform="translate(-194.013 1771.163)" fill="#342305"/>
      <path id="패스_213" data-name="패스 213" d="M1949.109,645.5h3.078v14.755h-3.078v-1.486q-1.79-.079-3.609-.053v-2.229h3.556Q1949.136,651.007,1949.109,645.5Z" transform="translate(-1863.75 -617.024)" fill="#342304" fill-rule="evenodd"/>
      <path id="패스_214" data-name="패스 214" d="M742.941,650.5h2.919v18.205h-2.866q.027-2.761-.053-5.52a.058.058,0,0,0-.053.053q-.765,1.124-1.566,2.229a7.88,7.88,0,0,1-3.344-4.14,9.566,9.566,0,0,1-2.309,3.636,10.078,10.078,0,0,1-1.247.929l-1.858-2.229a.107.107,0,0,1,.027-.159,7.893,7.893,0,0,0,3.423-4.724,17.873,17.873,0,0,0,.425-2.813q.04-2.07.026-4.14h3.025q-.028,2.549.08,5.1a9.389,9.389,0,0,0,1.858,4.777,6.357,6.357,0,0,0,1.486,1.274q.04-1.884.027-3.768H740.5v-2.6h2.442Z" transform="translate(-715.17 -621.759)" fill="#342304" fill-rule="evenodd"/>
      <path id="패스_215" data-name="패스 215" d="M928.5,649.436q1.472-.079,2.972-.053.026,9.169-.053,18.311V649.436Z" transform="translate(-900.729 -620.695)" fill="#968d7d" fill-rule="evenodd"/>
      <path id="빼기_4" data-name="빼기 4" d="M198.967-1735.489a8.332,8.332,0,0,1-2.557-.406,3.352,3.352,0,0,1-2.309-4.114,3.775,3.775,0,0,1,2.2-2.2,7.926,7.926,0,0,1,2.7-.476,8.266,8.266,0,0,1,.91.051,5.254,5.254,0,0,1,3.37,1.672,3.081,3.081,0,0,1,.61,1.486,3.109,3.109,0,0,1-.956,2.707,5.374,5.374,0,0,1-2.759,1.194A8.571,8.571,0,0,1,198.967-1735.489Zm-.428-4.788c-.094,0-.185,0-.272,0a3.212,3.212,0,0,0-1.009.451,1.058,1.058,0,0,0,.106,1.592,3.486,3.486,0,0,0,1.589.394,3.711,3.711,0,0,0,1.119-.182,1.115,1.115,0,0,0,.9-1.061,1.32,1.32,0,0,0-1.114-1.115A10.62,10.62,0,0,0,198.539-1740.277Z" transform="translate(-120.711 1771.775)" fill="#342305"/>
      <path id="빼기_3" data-name="빼기 3" d="M199.456-1732.865a6.333,6.333,0,0,1-3.6-1.164,4.759,4.759,0,0,1-1.778-4.591,4.835,4.835,0,0,1,3.264-3.689c.452-.13.916-.246,1.38-.345.231-.022.462-.032.688-.032a6.524,6.524,0,0,1,3.824,1.227,4.68,4.68,0,0,1,1.566,5.069,4.757,4.757,0,0,1-3.317,3.21A6.958,6.958,0,0,1,199.456-1732.865Zm-.119-7.057a3.931,3.931,0,0,0-.461.028,6.607,6.607,0,0,0-.742.292,2.023,2.023,0,0,0-.93,1.088,2.137,2.137,0,0,0,1.672,2.839,3.473,3.473,0,0,0,.664.068,2.748,2.748,0,0,0,2.069-.944,2.189,2.189,0,0,0-.4-2.84A3.569,3.569,0,0,0,199.336-1739.922Z" transform="translate(-139.259 1772.351)" fill="#342305"/>
      <path id="빼기_2" data-name="빼기 2" d="M203.62-1729.524h-9.607v-13.163h9.607v13.162Zm-6.476-10.616v8.015h3.4v-8.015Z" transform="translate(-157.219 1772.861)" fill="#342304"/>
      <path id="패스_220" data-name="패스 220" d="M582.665,644.437h-3.078v2.654q-2.057.026-4.087-.053h4.034v-2.654Q581.113,644.357,582.665,644.437Z" transform="translate(-566.465 -615.961)" fill="#989081" fill-rule="evenodd"/>
      <path id="패스_222" data-name="패스 222" d="M1957.632,645.5q.026,5.507-.053,10.987v-5.2q-1.526.421-3.078.743a3.1,3.1,0,0,0,.955-2.707,1.934,1.934,0,0,1,.053.637,10.932,10.932,0,0,0,2.017-.584q.08-1.751.053-3.5A.68.68,0,0,1,1957.632,645.5Z" transform="translate(-1872.273 -617.024)" fill="#e1ddd6" fill-rule="evenodd"/>
      <path id="패스_225" data-name="패스 225" d="M1156.5,724.5h3.5v8.121h-3.5Z" transform="translate(-1116.628 -691.831)" fill="none" fill-rule="evenodd"/>
      <path id="패스_228" data-name="패스 228" d="M1764.073,801.151q5.719.079,11.464.053v2.548h-14.6v-6.1h2.654v-2.07q-2.362.038-4.724.053-.186-1.274-.372-2.548a113.527,113.527,0,0,0,12.685-.584q.044,1.17.159,2.335a46.066,46.066,0,0,1-4.618.531v3.662h-2.654Z" transform="translate(-1686.676 -756.222)" fill="#342305" fill-rule="evenodd"/>
      <path id="패스_229" data-name="패스 229" d="M1434.291,879.57v.265a.152.152,0,0,0-.159.053,55.019,55.019,0,0,1-7.271.77q-2.494.082-4.989.08-.2-1.272-.371-2.548,3.983-.078,7.961-.239,2.318-.141,4.618-.451Q1434.216,878.531,1434.291,879.57Z" transform="translate(-1367.562 -836.71)" fill="#342305" fill-rule="evenodd"/>
      <path id="패스_230" data-name="패스 230" d="M467.578,880.5v4.034h10.4v2.548H464.5V880.5Z" transform="translate(-461.356 -839.551)" fill="#332303" fill-rule="evenodd"/>
      <path id="패스_231" data-name="패스 231" d="M927.5,889.553a.059.059,0,0,1,.053-.053q.08,2.759.053,5.52h2.866v.053h-2.919Q927.58,892.3,927.5,889.553Z" transform="translate(-899.782 -848.073)" fill="#53442a" fill-rule="evenodd"/>
      <path id="패스_232" data-name="패스 232" d="M1944.436,852.5v2.229q1.818-.026,3.609.053h-3.662Q1944.356,853.627,1944.436,852.5Z" transform="translate(-1862.686 -813.037)" fill="#776c57" fill-rule="evenodd"/>
      <path id="패스_233" data-name="패스 233" d="M651.5,830.5q.079,2.215.053,4.458h3.078q-1.552.079-3.131.053Z" transform="translate(-638.431 -792.205)" fill="#8c8371" fill-rule="evenodd"/>
      <path id="패스_234" data-name="패스 234" d="M1659.659,916.5a.513.513,0,0,1,.053.318h-.212a.152.152,0,0,1,.159-.053Z" transform="translate(-1592.93 -873.64)" fill="#a9a294" fill-rule="evenodd"/>
      <path id="패스_235" data-name="패스 235" d="M522.5,880.5q.079,1.977.053,3.981,5.188-.026,10.35.053H522.5Z" transform="translate(-516.278 -839.551)" fill="#827764" fill-rule="evenodd"/>
      <path id="패스_236" data-name="패스 236" d="M1863.5,955.5h11.518q.026,1.314-.053,2.6v-2.548Q1869.219,955.579,1863.5,955.5Z" transform="translate(-1786.103 -910.57)" fill="#9b9283" fill-rule="evenodd"/>
      <path id="패스_237" data-name="패스 237" d="M1101.048,1083.224h-1.274v4.405H1098.5V1078.5h1.274v3.662h1.274Z" transform="translate(-1061.706 -1027.042)" fill="#342304" fill-rule="evenodd"/>
      <path id="패스_238" data-name="패스 238" d="M1475.436,1078.5v9.129h1.274a8.3,8.3,0,0,1-1.327.053Q1475.357,1083.077,1475.436,1078.5Z" transform="translate(-1418.579 -1027.042)" fill="#847966" fill-rule="evenodd"/>
      <path id="패스_239" data-name="패스 239" d="M1476.5,1078.5h1.274v9.129H1476.5Z" transform="translate(-1419.643 -1027.042)" fill="#342405" fill-rule="evenodd"/>
      <path id="패스_240" data-name="패스 240" d="M1796.5,1078.5h1.274v3.662h1.221v1.062h-1.274v4.405H1796.5Z" transform="translate(-1722.659 -1027.042)" fill="#352406" fill-rule="evenodd"/>
      <path id="패스_241" data-name="패스 241" d="M778.5,1078.5h1.274v6.635H778.5Z" transform="translate(-758.69 -1027.042)" fill="#342304" fill-rule="evenodd"/>
      <path id="빼기_5" data-name="빼기 5" d="M202.346-1737.591h-8.333v-1.009h3.5v-.849c-.6-.039-1.211-.06-1.824-.06-.207,0-.415,0-.617.007v-3.185h6.21v3.185h-2.495a3.9,3.9,0,0,0,.053.9h3.5v1.008Zm-6.051-4.087v1.168h3.715v-1.168H196.3Z" transform="translate(-154.459 1794.516)" fill="#342304"/>
      <path id="빼기_7" data-name="빼기 7" d="M200.381-1738.706h-6.368v-3.981h1.22v1.009h3.875v-1.009h1.273v3.98Zm-5.148-1.911v.9h3.821v-.9Z" transform="translate(-133.865 1794.516)" fill="#352405"/>
      <path id="패스_244" data-name="패스 244" d="M665.5,1090.553v-.053h5.042v1.062h-1.858a15.455,15.455,0,0,1,1.8-.053v-.955Z" transform="translate(-651.688 -1038.405)" fill="#726651" fill-rule="evenodd"/>
      <path id="패스_245" data-name="패스 245" d="M824.729,1093.534q2.667.079,5.361.053v1.008h-1.274v1.38a19.152,19.152,0,0,0,2.017.053v1.009H822.5v-1.009a21.225,21.225,0,0,0,2.123-.053v-1.38h-1.168v-3.078H828.6a4.837,4.837,0,0,0,.053-1.008h-5.2V1089.5h6.422v3.025h-5.148Z" transform="translate(-800.355 -1037.458)" fill="#342304" fill-rule="evenodd"/>
      <path id="패스_246" data-name="패스 246" d="M659.819,1091.5h4.989v.955a15.4,15.4,0,0,0-1.8.053,2.78,2.78,0,0,0,2.176,2.787,9.571,9.571,0,0,1-.717.982,3.792,3.792,0,0,1-2.1-1.752,3.579,3.579,0,0,1-2.2,1.911,6.242,6.242,0,0,1-.663-.955,3.222,3.222,0,0,0,2.044-1.964,2.785,2.785,0,0,0,.133-1.009,16.325,16.325,0,0,0-1.858-.053Z" transform="translate(-646.006 -1039.352)" fill="#352406" fill-rule="evenodd"/>
      <path id="빼기_6" data-name="빼기 6" d="M195.977-1736.53h-1.858a.247.247,0,0,0-.054-.212,6.208,6.208,0,0,1-.052-.8h1.008v-4.14h-.8v-1.009h5.2v1.009h-.85c-.017,1.335,0,2.674.053,3.981.405-.04.8-.076,1.168-.106a8.729,8.729,0,0,1,.053.956A31.348,31.348,0,0,1,195.977-1736.53Zm.319-5.148v4.086h1.061v-4.086Z" transform="translate(-143.578 1794.994)" fill="#352507"/>
      <path id="패스_248" data-name="패스 248" d="M996.95,1099.693a.153.153,0,0,0-.159-.053v-.212a11.963,11.963,0,0,0,.159-2.123,3.017,3.017,0,0,0,.053-.8h-3.5V1095.5h4.777a26.021,26.021,0,0,1-.265,4.246Z" transform="translate(-962.279 -1043.14)" fill="#352407" fill-rule="evenodd"/>
      <path id="패스_249" data-name="패스 249" d="M1691.5,1095.5h4.724a22.39,22.39,0,0,1-.266,4.246q-.609-.051-1.221-.053.181-1.587.212-3.185h-3.45Z" transform="translate(-1623.232 -1043.14)" fill="#352406" fill-rule="evenodd"/>
      <path id="패스_251" data-name="패스 251" d="M840.5,1108.5h5.2a4.819,4.819,0,0,1-.053,1.009v-.955Q843.061,1108.579,840.5,1108.5Z" transform="translate(-817.4 -1055.45)" fill="#958c7c" fill-rule="evenodd"/>
      <path id="패스_252" data-name="패스 252" d="M664.44,1090.5v1.008a16.38,16.38,0,0,1,1.858.053h-1.911A5.337,5.337,0,0,1,664.44,1090.5Z" transform="translate(-650.628 -1038.405)" fill="#918877" fill-rule="evenodd"/>
      <path id="패스_253" data-name="패스 253" d="M993.5,1114.5H997a3.018,3.018,0,0,1-.053.8v-.743Q995.211,1114.579,993.5,1114.5Z" transform="translate(-962.279 -1061.131)" fill="#aca598" fill-rule="evenodd"/>
      <path id="패스_255" data-name="패스 255" d="M1442.232,1113.5a3.016,3.016,0,0,1-.8.053v3.928q-.08-1.977-.053-3.981Z" transform="translate(-1386.384 -1060.185)" fill="#9e9687" fill-rule="evenodd"/>
      <path id="패스_256" data-name="패스 256" d="M1561.5,1123.436q1.923-.08,3.874-.053v1.008q-1.951.026-3.874-.053h3.822v-.9Z" transform="translate(-1500.132 -1069.537)" fill="#a59d90" fill-rule="evenodd"/>
      <path id="패스_258" data-name="패스 258" d="M1193.5,1103.436q1.87-.08,3.768-.053v1.274q-1.9.026-3.768-.053h3.715v-1.168Z" transform="translate(-1151.664 -1050.598)" fill="#9c9586" fill-rule="evenodd"/>
      <path id="패스_259" data-name="패스 259" d="M987.145,1145.5h1.221v2.654a1.363,1.363,0,0,0,.531-.053,20.144,20.144,0,0,0,2.176-.159q.045.476.053.955a35.159,35.159,0,0,1-5.573.318q-.049-.5-.053-1.008h1.645Z" transform="translate(-954.704 -1090.486)" fill="#352406" fill-rule="evenodd"/>
      <path id="패스_260" data-name="패스 260" d="M1016.5,1144.437a7.664,7.664,0,0,1,1.274-.053v2.654h.478a1.36,1.36,0,0,1-.531.053v-2.654Z" transform="translate(-984.058 -1089.423)" fill="#7c715d" fill-rule="evenodd"/>
      <path id="패스_261" data-name="패스 261" d="M1169.436,1085.5v3.185q1.235-.026,2.441.053h-2.494Q1169.357,1087.1,1169.436,1085.5Z" transform="translate(-1128.821 -1033.671)" fill="#867c6a" fill-rule="evenodd"/>
      <path id="패스_262" data-name="패스 262" d="M1242.883,1085.5q.079,1.6.053,3.238h-2.495v.849a3.874,3.874,0,0,1-.053-.9h2.495Z" transform="translate(-1196.057 -1033.671)" fill="#9f9788" fill-rule="evenodd"/>
      <path id="패스_263" data-name="패스 263" d="M1684.145,1145.5h1.274v2.654q1.328-.092,2.654-.212a6.042,6.042,0,0,1,.053.955,36.22,36.22,0,0,1-5.573.318q0-.505-.053-1.008h1.645Z" transform="translate(-1614.71 -1090.486)" fill="#352407" fill-rule="evenodd"/>
      <path id="패스_264" data-name="패스 264" d="M1538.774,1084.437h-1.221v3.981h6.369q-3.2.08-6.422.053v-4.087A7.653,7.653,0,0,1,1538.774,1084.437Z" transform="translate(-1477.406 -1032.608)" fill="#6a5d46" fill-rule="evenodd"/>
      <path id="패스_265" data-name="패스 265" d="M864.5,1165.5h5.414a5.341,5.341,0,0,1-.053,1.062v-1.008Q867.167,1165.579,864.5,1165.5Z" transform="translate(-840.126 -1109.424)" fill="#948b7b" fill-rule="evenodd"/>
      <path id="패스_266" data-name="패스 266" d="M1101.048,1167.5a7.024,7.024,0,0,1-1.221.053v4.405a8.287,8.287,0,0,1-1.327-.053h1.274V1167.5Z" transform="translate(-1061.706 -1111.318)" fill="#a59d90" fill-rule="evenodd"/>
      <path id="패스_267" data-name="패스 267" d="M1795.436,1078.5v9.129h1.221v-4.405h1.274a7.014,7.014,0,0,1-1.221.053v4.405h-1.327Q1795.357,1083.077,1795.436,1078.5Z" transform="translate(-1721.595 -1027.042)" fill="#766a56" fill-rule="evenodd"/>
      <path id="패스_268" data-name="패스 268" d="M1054.462,1169.5v.212a.152.152,0,0,1,.159.053h-.212A.365.365,0,0,1,1054.462,1169.5Z" transform="translate(-1019.95 -1113.212)" fill="#9d9485" fill-rule="evenodd"/>
      <path id="패스_269" data-name="패스 269" d="M1519.5,1177.436q4.18-.08,8.386-.053v1.062h-3.609q1.764-.08,3.556-.053v-.955Z" transform="translate(-1460.361 -1120.671)" fill="#958c7b" fill-rule="evenodd"/>
      <path id="패스_270" data-name="패스 270" d="M1519.5,1178.5h8.333v.955q-1.792-.026-3.556.053v2.813h-1.221v-2.866H1519.5Z" transform="translate(-1460.361 -1121.734)" fill="#332303" fill-rule="evenodd"/>
      <path id="패스_271" data-name="패스 271" d="M886.5,1185.5h1.645v1.433H886.5Z" transform="translate(-860.958 -1128.363)" fill="#fbfafa" fill-rule="evenodd"/>
      <path id="패스_272" data-name="패스 272" d="M688.774,1192.5v1.911h5.042v1.009H687.5V1192.5Z" transform="translate(-672.52 -1134.992)" fill="#342305" fill-rule="evenodd"/>
      <path id="패스_273" data-name="패스 273" d="M1173.81,1194.436h-6.369v.955a4.842,4.842,0,0,1-.053-1.009Q1170.612,1194.356,1173.81,1194.436Z" transform="translate(-1126.932 -1136.768)" fill="#584a31" fill-rule="evenodd"/>
      <path id="패스_274" data-name="패스 274" d="M1174.869,1195.5v2.972H1173.6v-2.017h-5.1v-.955Z" transform="translate(-1127.991 -1137.832)" fill="#342305" fill-rule="evenodd"/>
      <path id="패스_275" data-name="패스 275" d="M1519.5,1196.5h3.556v2.866h1.221a7.641,7.641,0,0,1-1.274.053v-2.866Q1521.238,1196.579,1519.5,1196.5Z" transform="translate(-1460.361 -1138.779)" fill="#796e59" fill-rule="evenodd"/>
      <path id="패스_276" data-name="패스 276" d="M1356.5,1206.5a.245.245,0,0,1,.053.212h1.858a17.153,17.153,0,0,1-1.911.053Z" transform="translate(-1306.012 -1148.248)" fill="#807561" fill-rule="evenodd"/>
      <path id="패스_277" data-name="패스 277" d="M823.563,1211.5a21.186,21.186,0,0,1-2.123.053v1.008a5.347,5.347,0,0,1-.053-1.062Z" transform="translate(-799.295 -1152.983)" fill="#9e9687" fill-rule="evenodd"/>
      <path id="패스_278" data-name="패스 278" d="M941.5,1211.5h2.07a5.338,5.338,0,0,1-.053,1.062v-1.008A19.116,19.116,0,0,1,941.5,1211.5Z" transform="translate(-913.039 -1152.983)" fill="#938a79" fill-rule="evenodd"/>
      <path id="패스_279" data-name="패스 279" d="M687.827,1191.437h-1.274v2.919h6.316v-1.008a5.346,5.346,0,0,1,.053,1.062H686.5v-3.025A8.317,8.317,0,0,1,687.827,1191.437Z" transform="translate(-671.573 -1133.929)" fill="#847a67" fill-rule="evenodd"/>
    </g>
  </g>
</svg>
