<svg xmlns="http://www.w3.org/2000/svg" viewBox="0 0 32 32" role="img" aria-label="8¯X–">
  <defs>
    <linearGradient id="fbg" x1="0%" y1="0%" x2="100%" y2="100%">
      <stop offset="0%" stop-color="#f7f0df"/>
      <stop offset="40%" stop-color="#d4b46a"/>
      <stop offset="100%" stop-color="#8a6828"/>
    </linearGradient>
    <linearGradient id="fs" x1="22%" y1="12%" x2="48%" y2="42%">
      <stop offset="0%" stop-color="#fff" stop-opacity="0.5"/>
      <stop offset="100%" stop-color="#fff" stop-opacity="0"/>
    </linearGradient>
    <radialGradient id="fh" cx="30%" cy="25%" r="75%">
      <stop offset="0%" stop-color="#fff9ed" stop-opacity="0.7"/>
      <stop offset="100%" stop-color="#fff9ed" stop-opacity="0"/>
    </radialGradient>
  </defs>
  <rect width="32" height="32" rx="8" fill="#2a241c"/>
  <circle cx="16" cy="16" r="14" fill="url(#fh)"/>
  <circle cx="16" cy="16" r="12.5" fill="#fdfaf6" stroke="url(#fbg)" stroke-width="0.85"/>
  <path d="M16 7.5c-3.9 0-7.05 2.85-7.05 6.4 0 3.35 3.15 6.55 7.05 10.6 3.9-4.05 7.05-7.25 7.05-10.6 0-3.55-3.15-6.4-7.05-6.4z" fill="url(#fbg)"/>
  <path d="M16 7.5c-3.9 0-7.05 2.85-7.05 6.4 0 3.35 3.15 6.55 7.05 10.6 3.9-4.05 7.05-7.25 7.05-10.6 0-3.55-3.15-6.4-7.05-6.4z" fill="url(#fs)"/>
</svg>
