<svg xmlns="http://www.w3.org/2000/svg" width="103.404" height="60.647" viewBox="0 0 103.404 60.647">
  <g id="řů_4" data-name="řů 4" transform="translate(194.012 -1742.687)">
    <g id="řů_2" data-name="řů 2" transform="translate(-194.013 1742.687)">
      <path id="(¤_151" data-name="(¤ 151" d="M997.116,109.016q.834.161,1.7.265a13.213,13.213,0,0,1,8.041,20.965,13.2,13.2,0,0,1-9.686,5.255,25.8,25.8,0,0,1-3.025-.106,13.175,13.175,0,0,1-9.474-6.635,13.263,13.263,0,0,1,7.457-19.134A13.617,13.617,0,0,1,997.116,109.016Z" transform="translate(-952.307 -108.989)" fill="#b1a692" fill-rule="evenodd"/>
      <path id="(¤_152" data-name="(¤ 152" d="M1249.5,109.5a7.193,7.193,0,0,1,1.221.133,1.138,1.138,0,0,1,.478.133Q1250.334,109.661,1249.5,109.5Z" transform="translate(-1204.692 -109.473)" fill="#dad5cb" fill-rule="evenodd"/>
      <path id="(¤_158" data-name="(¤ 158" d="M1070.531,185.187a13.551,13.551,0,0,1,.053,2.866,9.766,9.766,0,0,1-5.2,7.351q-.964.407-1.964.743a9.628,9.628,0,0,1-9.58-2.893,9.8,9.8,0,0,1-1.858-9.978,10.137,10.137,0,0,1,4.591-5.122,9.686,9.686,0,0,1,10.456,1.062A9.4,9.4,0,0,1,1070.531,185.187Z" transform="translate(-1017.071 -173.483)" fill="#fdfdfd" fill-rule="evenodd"/>
      <path id="(¤_161" data-name="(¤ 161" d="M1112.83,209.358a5.776,5.776,0,0,0,1.327.212h1.221q.02,3.185-.053,6.369a2.22,2.22,0,0,0-.106.478q-.662-.093-1.327-.159-2.039-.269-4.087-.372a30.9,30.9,0,0,0-3.131-.027q-1.113.1-2.229.159a1.469,1.469,0,0,0-.584.133,3.643,3.643,0,0,0-.955.106,11.488,11.488,0,0,0-1.327.159,5.532,5.532,0,0,0-.106-.637q-.074-3.1-.053-6.21a16,16,0,0,0,3.344-.4q.937-.3,1.858-.637.909-.488,1.778-1.035A10.144,10.144,0,0,0,1112.83,209.358Z" transform="translate(-1064.466 -202.271)" fill="#b0a692" fill-rule="evenodd"/>
      <path id="(¤_182" data-name="(¤ 182" d="M1113.408,373.441q1.195.011,2.388.08,1.622.21,3.238.451a9.914,9.914,0,0,1-2.229,4.565q-2.208-2.274-4.538-4.511-2.3,2.225-4.511,4.458a1.543,1.543,0,0,1-.478-.478,11.429,11.429,0,0,1-1.778-3.954.193.193,0,0,1,.106-.106q1.349-.214,2.707-.345a20.758,20.758,0,0,0,2.229-.133Q1111.975,373.427,1113.408,373.441Z" transform="translate(-1068.334 -359.402)" fill="#b0a591" fill-rule="evenodd"/>
      <path id="(¤_185" data-name="(¤ 185" d="M1171.844,426.45a.263.263,0,0,1,.159.027q1.686,1.673,3.344,3.37a11.322,11.322,0,0,1-3.476,2.123,10.8,10.8,0,0,1-3.37-2.123Z" transform="translate(-1127.991 -409.598)" fill="#b1a793" fill-rule="evenodd"/>
      <path id="|0_8" data-name="|0 8" d="M201.923-1711.889h0v-14.557h-3.079a.688.688,0,0,0-.053.372h-4.776v-1.645c.746,0,1.56.007,2.421.007,2.394,0,4.829-.02,7.238-.06.159-.76.3-1.528.425-2.282h-9.873v-1.7h10.031v-2.07H196.4v-1.645h7.855v-2.017H195.18v-1.7c.38,0,.8,0,1.275,0,1.265,0,2.551-.01,3.82-.03a13.868,13.868,0,0,0-1.858-2.839c.516-.235,1.042-.449,1.566-.637a10.792,10.792,0,0,1,2.2,3.105l-.251.126-.083.042-.409.2c1.175.017,2.407.027,3.662.027,1.218,0,2.45-.009,3.662-.027-.279-.1-.547-.207-.8-.319a30.883,30.883,0,0,0,2.1-3.1.218.218,0,0,1,.106-.053c.617.188,1.233.385,1.831.584a25.488,25.488,0,0,1-2.229,2.893c1.339.02,2.732.03,4.138.03.468,0,.932,0,1.381,0v1.7h-9.182v2.017h8.068v1.645h-8.068v2.07h10.137v1.7H206.008a15.726,15.726,0,0,1-.372,2.282c2.686.039,5.429.06,8.153.06.917,0,1.835,0,2.728-.007v1.645c-.71,0-1.486-.006-2.307-.006-2.337,0-4.686.02-6.982.059a8.318,8.318,0,0,0,3.609,3.158,20.056,20.056,0,0,0,6.051,1.486,5.431,5.431,0,0,0-1.114,1.619,15.407,15.407,0,0,1-6.847-2.1,9.839,9.839,0,0,1-3.635-4.167.135.135,0,0,0-.094-.049.131.131,0,0,0-.092.049,7.831,7.831,0,0,1-3.078,3.821q-.05,4.849-.1,9.676Zm.318-14.188q-.133,0-.267,0c-.009.484,0,.985.026,1.486a7.428,7.428,0,0,0,1.035-1.46C202.777-1726.067,202.51-1726.077,202.241-1726.077Z" transform="translate(-113.484 1754.921)" fill="#e5e1db" fill-rule="evenodd"/>
      <path id="(¤_209" data-name="(¤ 209" d="M1002.5,644.5h2.972v19.426H1002.5Z" transform="translate(-970.801 -616.077)" fill="#332303" fill-rule="evenodd"/>
      <path id="(¤_210" data-name="(¤ 210" d="M1329.5,644.5h3.131v19.479H1329.5Z" transform="translate(-1280.445 -616.077)" fill="#342305" fill-rule="evenodd"/>
      <path id="(¤_211" data-name="(¤ 211" d="M1671.5,644.5h3.078v19.479H1671.5Z" transform="translate(-1604.293 -616.077)" fill="#342304" fill-rule="evenodd"/>
      <path id="|0_1" data-name="|0 1" d="M210.213-1728.41h-3.078c.017-1.494,0-2.993-.053-4.458-.3,0-.634,0-1.016,0-.994,0-2.01.01-3.018.029a5.578,5.578,0,0,1-3.85,1.514c-.2,0-.4-.01-.608-.028a5.5,5.5,0,0,1-3.022-1.376,5.484,5.484,0,0,1-1.516-2.95,5.571,5.571,0,0,1,.641-3.46,5.488,5.488,0,0,1,2.729-2.193,6.473,6.473,0,0,1,1.853-.287,5.547,5.547,0,0,1,3.773,1.535c1.01.04,2.038.06,3.056.06.341,0,.687,0,1.031-.007v-2.654h3.078v14.277Zm-11.305-10.4h0a2.309,2.309,0,0,0-1.937,2.76,2.1,2.1,0,0,0,1.778,1.884,3.805,3.805,0,0,0,.511.037,2.194,2.194,0,0,0,2.222-1.761,2.728,2.728,0,0,0-.481-2.18,2.711,2.711,0,0,0-2.093-.739Zm5.52,1.328a9.987,9.987,0,0,1,0,2.017h2.654v-2.017Z" transform="translate(-194.013 1771.163)" fill="#342305"/>
      <path id="(¤_213" data-name="(¤ 213" d="M1949.109,645.5h3.078v14.755h-3.078v-1.486q-1.79-.079-3.609-.053v-2.229h3.556Q1949.136,651.007,1949.109,645.5Z" transform="translate(-1863.75 -617.024)" fill="#342304" fill-rule="evenodd"/>
      <path id="(¤_214" data-name="(¤ 214" d="M742.941,650.5h2.919v18.205h-2.866q.027-2.761-.053-5.52a.058.058,0,0,0-.053.053q-.765,1.124-1.566,2.229a7.88,7.88,0,0,1-3.344-4.14,9.566,9.566,0,0,1-2.309,3.636,10.078,10.078,0,0,1-1.247.929l-1.858-2.229a.107.107,0,0,1,.027-.159,7.893,7.893,0,0,0,3.423-4.724,17.873,17.873,0,0,0,.425-2.813q.04-2.07.026-4.14h3.025q-.028,2.549.08,5.1a9.389,9.389,0,0,0,1.858,4.777,6.357,6.357,0,0,0,1.486,1.274q.04-1.884.027-3.768H740.5v-2.6h2.442Z" transform="translate(-715.17 -621.759)" fill="#342304" fill-rule="evenodd"/>
      <path id="|0_4" data-name="|0 4" d="M198.967-1735.489a8.332,8.332,0,0,1-2.557-.406,3.352,3.352,0,0,1-2.309-4.114,3.775,3.775,0,0,1,2.2-2.2,7.926,7.926,0,0,1,2.7-.476,8.266,8.266,0,0,1,.91.051,5.254,5.254,0,0,1,3.37,1.672,3.081,3.081,0,0,1,.61,1.486,3.109,3.109,0,0,1-.956,2.707,5.374,5.374,0,0,1-2.759,1.194A8.571,8.571,0,0,1,198.967-1735.489Zm-.428-4.788c-.094,0-.185,0-.272,0a3.212,3.212,0,0,0-1.009.451,1.058,1.058,0,0,0,.106,1.592,3.486,3.486,0,0,0,1.589.394,3.711,3.711,0,0,0,1.119-.182,1.115,1.115,0,0,0,.9-1.061,1.32,1.32,0,0,0-1.114-1.115A10.62,10.62,0,0,0,198.539-1740.277Z" transform="translate(-120.711 1771.775)" fill="#342305"/>
      <path id="|0_3" data-name="|0 3" d="M199.456-1732.865a6.333,6.333,0,0,1-3.6-1.164,4.759,4.759,0,0,1-1.778-4.591,4.835,4.835,0,0,1,3.264-3.689c.452-.13.916-.246,1.38-.345.231-.022.462-.032.688-.032a6.524,6.524,0,0,1,3.824,1.227,4.68,4.68,0,0,1,1.566,5.069,4.757,4.757,0,0,1-3.317,3.21A6.958,6.958,0,0,1,199.456-1732.865Zm-.119-7.057a3.931,3.931,0,0,0-.461.028,6.607,6.607,0,0,0-.742.292,2.023,2.023,0,0,0-.93,1.088,2.137,2.137,0,0,0,1.672,2.839,3.473,3.473,0,0,0,.664.068,2.748,2.748,0,0,0,2.069-.944,2.189,2.189,0,0,0-.4-2.84A3.569,3.569,0,0,0,199.336-1739.922Z" transform="translate(-139.259 1772.351)" fill="#342305"/>
      <path id="|0_2" data-name="|0 2" d="M203.62-1729.524h-9.607v-13.163h9.607v13.162Zm-6.476-10.616v8.015h3.4v-8.015Z" transform="translate(-157.219 1772.861)" fill="#342304"/>
      <path id="(¤_228" data-name="(¤ 228" d="M1764.073,801.151q5.719.079,11.464.053v2.548h-14.6v-6.1h2.654v-2.07q-2.362.038-4.724.053-.186-1.274-.372-2.548a113.527,113.527,0,0,0,12.685-.584q.044,1.17.159,2.335a46.066,46.066,0,0,1-4.618.531v3.662h-2.654Z" transform="translate(-1686.676 -756.222)" fill="#342305" fill-rule="evenodd"/>
      <path id="(¤_229" data-name="(¤ 229" d="M1434.291,879.57v.265a.152.152,0,0,0-.159.053,55.019,55.019,0,0,1-7.271.77q-2.494.082-4.989.08-.2-1.272-.371-2.548,3.983-.078,7.961-.239,2.318-.141,4.618-.451Q1434.216,878.531,1434.291,879.57Z" transform="translate(-1367.562 -836.71)" fill="#342305" fill-rule="evenodd"/>
      <path id="(¤_230" data-name="(¤ 230" d="M467.578,880.5v4.034h10.4v2.548H464.5V880.5Z" transform="translate(-461.356 -839.551)" fill="#332303" fill-rule="evenodd"/>
    </g>
  </g>
</svg>
